# xmcd
#
# Track frame offsets: 
#        150
#        21120
#        50285
#        75465
#        80827
#        104012
#        118770
#        133997
#        147350
#        170670
#        190845
#        209290
#        219965
#
# Disc length: 3054 seconds
#
# Revision: 1
# Processed by: cddbd v1.5.2PL0 Copyright (c) Steve Scherf et al.
# Submitted via: ExactAudioCopy v0.99pb4
#
DISCID=be0bec0d
DTITLE=Wildwest - Abenteuer - Das Rätsel der Wildpferdschlucht (13)
DYEAR=2000
DGENRE=Speech
TTITLE0=Ein Schwager zum Geburtstag
TTITLE1=Um die Liebe mit Gott wetten
TTITLE2=Die heilige Schlucht
TTITLE3=Friede sei mit euch
TTITLE4=Gefährliche Pläne
TTITLE5=Geschnappt
TTITLE6=Willy und -Blökendes Kalb-
TTITLE7=Der Schreck im Stollen
TTITLE8=Mr Paddlers weiser Rat
TTITLE9=Der Frevel ist gross
TTITLE10=Flügel der Worte
TTITLE11=Erlösendes Gewitter
TTITLE12=Der späte Besucher
EXTD=
EXTT0=
EXTT1=
EXTT2=
EXTT3=
EXTT4=
EXTT5=
EXTT6=
EXTT7=
EXTT8=
EXTT9=
EXTT10=
EXTT11=
EXTT12=
PLAYORDER=
